 General
      Complete name : Sling.Blade.1996.BRRip.H264.AC3.5.1ch.Gopo.mp4
      Format : MPEG-4
      Format profile : Base Media
      Codec ID : isom
      File size : 2.24 GiB
      Duration : 2h 14mn
      Overall bit rate : 2 381 Kbps
      Encoded date : UTC 2010-02-11 13:58:19
      Tagged date : UTC 2010-02-11 13:58:19
   Video #1
      ID : 1
      Format : AVC
      Format/Info : Advanced Video Codec
      Format profile : High@L4.1
      Format settings, CABAC : Yes
      Format settings, ReFrames : 5 frames
      Codec ID : avc1
      Codec ID/Info : Advanced Video Coding
      Duration : 2h 14mn
      Bit rate mode : Variable
      Bit rate : 2 059 Kbps
      Maximum bit rate : 7 490 Kbps
      Width : 1 280 pixels
      Height : 688 pixels
      Display aspect ratio : 1.860
      Frame rate mode : Constant
      Frame rate : 23.976 fps
      Resolution : 24 bits
      Colorimetry : 4:2:0
      Scan type : Progressive
      Bits/(Pixel*Frame) : 0.098
      Stream size : 1.94 GiB (86%)
      Writing library : x264 core 84 r1416 fcf70c2
      Encoding settings : cabac=1 / ref=5 / deblock=1:0:0 / analyse=0x3:0x113 / me=hex / subme=7 / psy=1 / psy_rd=1.0:0.0 / mixed_ref=1 / me_range=16 / chroma_me=1 / trellis=0 / 8x8dct=1 / cqm=0 / deadzone=21,11 / fast_pskip=1 / chroma_qp_offset=-2 / threads=1 / sliced_threads=0 / nr=0 / decimate=1 / mbaff=0 / constrained_intra=0 / bframes=3 / b_pyramid=0 / b_adapt=1 / b_bias=0 / direct=1 / wpredb=1 / wpredp=2 / keyint=250 / keyint_min=25 / scenecut=40 / intra_refresh=0 / rc_lookahead=40 / rc=2pass / mbtree=1 / bitrate=2059 / ratetol=1.0 / qcomp=0.60 / qpmin=10 / qpmax=51 / qpstep=4 / cplxblur=20.0 / qblur=0.5 / vbv_maxrate=31250 / vbv_bufsize=31250 / ip_ratio=1.40 / aq=1:1.00
      Encoded date : UTC 2010-02-09 20:08:09
      Tagged date : UTC 2010-02-11 14:56:25
   Audio #2
      ID : 2
      Format : AC-3
      Format/Info : Audio Coding 3
      Codec ID : ac-3
      Duration : 2h 14mn
      Bit rate mode : Constant
      Bit rate : 320 Kbps
      Channel(s) : 6 channels
      Channel positions : Front: L C R, Surround: L R, LFE
      Sampling rate : 48.0 KHz
      Resolution : 16 bits
      Stream size : 308 MiB (13%)
      Title : Imported with GPAC 0.4.6-DEV (build 1)
      Encoded date : UTC 2010-02-11 14:07:48
      Tagged date : UTC 2010-02-11 14:56:25
	Sample : YES
	Subtitle : English,Romanian

***I tried to encode the sound to AAC and it just didn't work so I made the sound in AC3 instead.***

PLOT
Karl Childers, a simple man hospitalized since his childhood murder of his mother and her lover, is released to start a new life in a small town.
Director: Billy Bob Thornton
CASTING 
     
	Billy Bob Thornton	... 	Karl Childers
	Dwight Yoakam	... 	Doyle Hargraves
	J.T. Walsh	... 	Charles Bushman
	John Ritter	... 	Vaughan Cunningham
	Lucas Black	... 	Frank Wheatley
	Natalie Canerday	... 	Linda Wheatley
	James Hampton	... 	Jerry Woolridge
	Robert Duvall	... 	Karl's Father
	Rick Dial	... 	Bill Cox
	Brent Briscoe	... 	Scooter Hodges
	Christine Renee Ward	... 	Melinda (as Christy Ward)
	Sarah Boss	... 	Marsha Dwiggins
	Kathy Sue Brown	... 	Theresa Evans
	Wendell Rafferty	... 	Melvin
	Bruce Hampton	... 	Morris (as Col. Bruce Hampton Ret.)

SOURCE: Sling Blade 1996 BluRay 720p x264 DTS HD-Bits.mkv

Notes: For best performance I suggest you to use KMPlayer(find it with google) for playback
These movies were made especially for PC but with PS3 profile so for some unknown reason they don't work on PS3.If you want to test them then knock yourself out.
